<svg xmlns="http://www.w3.org/2000/svg" width="38" height="38" viewBox="0 0 38 38">
  <g id="Group_199" data-name="Group 199" transform="translate(-1709 -978)">
    <g id="Group_198" data-name="Group 198">
      <g id="Group_193" data-name="Group 193" transform="translate(-88 -27)">
        <g id="Ellipse" transform="translate(1797 1005)" fill="rgba(255,255,255,0)">
          <path d="M 19 37.5 C 16.50230026245117 37.5 14.07956981658936 37.01092910766602 11.79911994934082 36.04637908935547 C 9.596209526062012 35.11463165283203 7.617690086364746 33.7806396484375 5.918519973754883 32.08147811889648 C 4.219359874725342 30.38231086730957 2.885370016098022 28.40378952026367 1.953619956970215 26.20088005065918 C 0.9890699982643127 23.92042922973633 0.5 21.49769973754883 0.5 19 C 0.5 16.50230026245117 0.9890699982643127 14.07956981658936 1.953619956970215 11.79911994934082 C 2.885370016098022 9.596209526062012 4.219359874725342 7.617690086364746 5.918519973754883 5.918519973754883 C 7.617690086364746 4.219359874725342 9.596209526062012 2.885370016098022 11.79911994934082 1.953619956970215 C 14.07956981658936 0.9890699982643127 16.50230026245117 0.5 19 0.5 C 21.49769973754883 0.5 23.92042922973633 0.9890699982643127 26.20088005065918 1.953619956970215 C 28.40378952026367 2.885370016098022 30.38231086730957 4.219359874725342 32.08147811889648 5.918519973754883 C 33.7806396484375 7.617690086364746 35.11463165283203 9.596209526062012 36.04637908935547 11.79911994934082 C 37.01092910766602 14.07956981658936 37.5 16.50230026245117 37.5 19 C 37.5 21.49769973754883 37.01092910766602 23.92042922973633 36.04637908935547 26.20088005065918 C 35.11463165283203 28.40378952026367 33.7806396484375 30.38231086730957 32.08147811889648 32.08147811889648 C 30.38231086730957 33.7806396484375 28.40378952026367 35.11463165283203 26.20088005065918 36.04637908935547 C 23.92042922973633 37.01092910766602 21.49769973754883 37.5 19 37.5 Z" stroke="none"/>
          <path d="M 19 1 C 14.19202995300293 1 9.671829223632812 2.872329711914062 6.272079467773438 6.272079467773438 C 2.872329711914062 9.671829223632812 1 14.19202995300293 1 19 C 1 23.80797004699707 2.872329711914062 28.32817077636719 6.272079467773438 31.72792053222656 C 9.671829223632812 35.12767028808594 14.19202995300293 37 19 37 C 23.80797004699707 37 28.32817077636719 35.12767028808594 31.72792053222656 31.72792053222656 C 35.12767028808594 28.32817077636719 37 23.80797004699707 37 19 C 37 14.19202995300293 35.12767028808594 9.671829223632812 31.72792053222656 6.272079467773438 C 28.32817077636719 2.872329711914062 23.80797004699707 1 19 1 M 19 0 C 29.49341011047363 0 38 8.506589889526367 38 19 C 38 29.49341011047363 29.49341011047363 38 19 38 C 8.506589889526367 38 0 29.49341011047363 0 19 C 0 8.506589889526367 8.506589889526367 0 19 0 Z" stroke="none" fill="#77c159"/>
        </g>
      </g>
      <path id="Icon_awesome-android" data-name="Icon awesome-android" d="M4.8,9.952v5.172a1.219,1.219,0,0,1-1.217,1.237A1.326,1.326,0,0,1,2.25,15.124V9.952A1.325,1.325,0,0,1,3.583,8.724,1.228,1.228,0,0,1,4.8,9.952Zm.478,7.012a1.313,1.313,0,0,0,1.31,1.322H7.47l.013,2.729a1.222,1.222,0,1,0,2.444,0V18.285h1.647v2.729a1.229,1.229,0,1,0,2.457,0V18.285h.894a1.311,1.311,0,0,0,1.3-1.322V8.952H5.278ZM16.257,8.518H5.229A5.023,5.023,0,0,1,8.045,4.079L7.2,2.5a.171.171,0,1,1,.3-.17l.859,1.59a5.934,5.934,0,0,1,4.795,0L14,2.338a.171.171,0,1,1,.3.17l-.846,1.572a5.034,5.034,0,0,1,2.8,4.439ZM8.7,6.04a.467.467,0,0,0-.465-.469.469.469,0,0,0,0,.938A.467.467,0,0,0,8.7,6.04Zm5.02,0a.458.458,0,1,0-.452.469A.464.464,0,0,0,13.721,6.04Zm4.2,2.684A1.219,1.219,0,0,0,16.7,9.952v5.172a1.227,1.227,0,0,0,1.217,1.237,1.323,1.323,0,0,0,1.333-1.237V9.952A1.315,1.315,0,0,0,17.917,8.724Z" transform="translate(1717.75 984.755)" fill="#77c159"/>
    </g>
  </g>
</svg>
