<svg xmlns="http://www.w3.org/2000/svg" width="38" height="38" viewBox="0 0 38 38">
  <g id="Group_10060" data-name="Group 10060" transform="translate(-1709 -1270)">
    <g id="Group_214" data-name="Group 214" transform="translate(0 292)">
      <g id="Group_198" data-name="Group 198">
        <g id="Group_193" data-name="Group 193" transform="translate(-88 -27)">
          <g id="Ellipse" transform="translate(1797 1005)" fill="rgba(255,255,255,0)">
            <path d="M 19 37.5 C 16.50230026245117 37.5 14.07956981658936 37.01092910766602 11.79911994934082 36.04637908935547 C 9.596209526062012 35.11463165283203 7.617690086364746 33.7806396484375 5.918519973754883 32.08147811889648 C 4.219359874725342 30.38231086730957 2.885370016098022 28.40378952026367 1.953619956970215 26.20088005065918 C 0.9890699982643127 23.92042922973633 0.5 21.49769973754883 0.5 19 C 0.5 16.50230026245117 0.9890699982643127 14.07956981658936 1.953619956970215 11.79911994934082 C 2.885370016098022 9.596209526062012 4.219359874725342 7.617690086364746 5.918519973754883 5.918519973754883 C 7.617690086364746 4.219359874725342 9.596209526062012 2.885370016098022 11.79911994934082 1.953619956970215 C 14.07956981658936 0.9890699982643127 16.50230026245117 0.5 19 0.5 C 21.49769973754883 0.5 23.92042922973633 0.9890699982643127 26.20088005065918 1.953619956970215 C 28.40378952026367 2.885370016098022 30.38231086730957 4.219359874725342 32.08147811889648 5.918519973754883 C 33.7806396484375 7.617690086364746 35.11463165283203 9.596209526062012 36.04637908935547 11.79911994934082 C 37.01092910766602 14.07956981658936 37.5 16.50230026245117 37.5 19 C 37.5 21.49769973754883 37.01092910766602 23.92042922973633 36.04637908935547 26.20088005065918 C 35.11463165283203 28.40378952026367 33.7806396484375 30.38231086730957 32.08147811889648 32.08147811889648 C 30.38231086730957 33.7806396484375 28.40378952026367 35.11463165283203 26.20088005065918 36.04637908935547 C 23.92042922973633 37.01092910766602 21.49769973754883 37.5 19 37.5 Z" stroke="none"/>
            <path d="M 19 1 C 14.19202995300293 1 9.671829223632812 2.872329711914062 6.272079467773438 6.272079467773438 C 2.872329711914062 9.671829223632812 1 14.19202995300293 1 19 C 1 23.80797004699707 2.872329711914062 28.32817077636719 6.272079467773438 31.72792053222656 C 9.671829223632812 35.12767028808594 14.19202995300293 37 19 37 C 23.80797004699707 37 28.32817077636719 35.12767028808594 31.72792053222656 31.72792053222656 C 35.12767028808594 28.32817077636719 37 23.80797004699707 37 19 C 37 14.19202995300293 35.12767028808594 9.671829223632812 31.72792053222656 6.272079467773438 C 28.32817077636719 2.872329711914062 23.80797004699707 1 19 1 M 19 0 C 29.49341011047363 0 38 8.506589889526367 38 19 C 38 29.49341011047363 29.49341011047363 38 19 38 C 8.506589889526367 38 0 29.49341011047363 0 19 C 0 8.506589889526367 8.506589889526367 0 19 0 Z" stroke="none" fill="#a6b1b7"/>
          </g>
        </g>
      </g>
    </g>
    <g id="Group_203" data-name="Group 203" transform="translate(87.741 633.431)">
      <g id="Group_369" data-name="Group 369">
        <path id="Path_139" data-name="Path 139" d="M1647.257,731.67c-.389.449-.75.845-1.089,1.26a4.19,4.19,0,0,0,.754,5.807,6.383,6.383,0,0,0,.848.542c.116.067.159.116.1.252a11.729,11.729,0,0,1-1.768,3.275,10.21,10.21,0,0,1-1.663,1.436,1.539,1.539,0,0,1-1.468.117c-.4-.13-.794-.265-1.177-.431a3.137,3.137,0,0,0-2.468-.026c-.289.11-.584.2-.866.33a2.455,2.455,0,0,1-2.818-.528,9.165,9.165,0,0,1-2.174-3.043,12.33,12.33,0,0,1-1.206-4.809,5.79,5.79,0,0,1,1.955-4.832,3.977,3.977,0,0,1,4.3-.737,2.489,2.489,0,0,1,.327.137,2.735,2.735,0,0,0,2.663,0,4.659,4.659,0,0,1,2.478-.518A4.571,4.571,0,0,1,1647.257,731.67Z" transform="translate(0 -79.712)" fill="#a6b1b7"/>
        <path id="Path_140" data-name="Path 140" d="M1780.338,645.569c.533,2.347-1.161,4.056-3.592,4.327C1776.508,647.8,1777.752,646.13,1780.338,645.569Z" transform="translate(-136.569)" fill="#a6b1b7"/>
      </g>
    </g>
  </g>
</svg>
