<svg xmlns="http://www.w3.org/2000/svg" xmlns:xlink="http://www.w3.org/1999/xlink" width="38" height="38" viewBox="0 0 38 38">
  <defs>
    <clipPath id="clip-path">
      <rect id="Rectangle_369" data-name="Rectangle 369" width="18" height="18" transform="translate(2840.074 -587.926)" fill="#4ad991" stroke="#4ad991" stroke-width="1"/>
    </clipPath>
  </defs>
  <g id="Group_150" data-name="Group 150" transform="translate(-1847 -232)">
    <g id="Icon" transform="translate(617 -457)">
      <g id="Ellipse" transform="translate(1230 689)" fill="rgba(255,255,255,0)" stroke="#4ad991" stroke-width="1">
        <circle cx="19" cy="19" r="19" stroke="none"/>
        <circle cx="19" cy="19" r="18.5" fill="none"/>
      </g>
      <g id="Group_10752" data-name="Group 10752" transform="translate(977.547 1.547)">
        <g id="Rectangle_2371" data-name="Rectangle 2371" transform="translate(263.453 698.453)" fill="#4ad991" stroke="#707070" stroke-width="1" opacity="0">
          <rect width="16" height="16" stroke="none"/>
          <rect x="0.5" y="0.5" width="15" height="15" fill="none"/>
        </g>
        <g id="Mask_Group_27" data-name="Mask Group 27" transform="translate(-2577.621 1285.379)" clip-path="url(#clip-path)">
          <g id="Group_327" data-name="Group 327" transform="translate(2840.667 -587.436)">
            <path id="Path_1942" data-name="Path 1942" d="M870.1-39.058c-1.022,0-1.861-.006-2.641-.019a1.633,1.633,0,0,1-1.268-.653,1.876,1.876,0,0,1-.328-1.584,8.533,8.533,0,0,1,5.48-6.221c.044-.017.082-.035.13-.058l.083-.04.4-.185-.341-.273a4.5,4.5,0,0,1-1.576-2.329,4.267,4.267,0,0,1,.553-3.512,4.264,4.264,0,0,1,2.989-1.921,4.812,4.812,0,0,1,.641-.043A4.323,4.323,0,0,1,878.53-52.2a4.28,4.28,0,0,1-.82,3.229A4.213,4.213,0,0,1,874.9-47.28c-.284.036-.578.061-.863.085a9.646,9.646,0,0,0-1.855.278,7.549,7.549,0,0,0-5.509,5.718,1.035,1.035,0,0,0,.137.936,1.1,1.1,0,0,0,.932.384h3.583l2.361,0a.511.511,0,0,1,.44.207.359.359,0,0,1,.014.354.375.375,0,0,1-.367.249q-.847,0-1.695,0Q871.093-39.059,870.1-39.058Zm4.124-16.04a3.535,3.535,0,0,0-3.526,3.534,3.535,3.535,0,0,0,3.527,3.532,3.5,3.5,0,0,0,2.493-1.034,3.507,3.507,0,0,0,1.034-2.5A3.537,3.537,0,0,0,874.229-55.1Z" transform="translate(-865.813 55.895)" fill="#4ad991" stroke="#4ad991" stroke-width="0.5"/>
            <path id="Path_1943" data-name="Path 1943" d="M1004.606,86.562a3.846,3.846,0,0,1-3.822-3.824,3.835,3.835,0,0,1,3.824-3.848h.018a3.814,3.814,0,0,1,2.814,1.237,3.533,3.533,0,0,1,.98,2.582v.04a3.531,3.531,0,0,1-.984,2.579,3.815,3.815,0,0,1-2.817,1.233ZM1004.6,79.7a3.024,3.024,0,0,0,.027,6.047h.014a3.024,3.024,0,0,0-.027-6.047Z" transform="translate(-991.614 -69.733)" fill="#4ad991" stroke="#4ad991" stroke-width="0.5"/>
            <path id="Path_1944" data-name="Path 1944" d="M1052.033,111.08c-.193,0-.39-.007-.583-.022-.281-.021-.309-.3-.311-.389-.011-.493-.011-.944,0-1.379a.4.4,0,0,1,.4-.41h0a.411.411,0,0,1,.411.429c.005.139,0,.283,0,.435,0,.074,0,.151,0,.231v.243l.242.027.16.016c.1.009.18.017.257.031a.368.368,0,0,1,.317.379.346.346,0,0,1-.3.387C1052.432,111.073,1052.232,111.08,1052.033,111.08Z" transform="translate(-1038.542 -97.686)" fill="#4ad991"/>
          </g>
        </g>
      </g>
    </g>
  </g>
</svg>
